<svg xmlns="http://www.w3.org/2000/svg" version="1.1" xmlns:xlink="http://www.w3.org/1999/xlink" xmlns:svgjs="http://svgjs.dev/svgjs" viewBox="0 0 800 800" opacity="1"><defs><linearGradient x1="50%" y1="0%" x2="50%" y2="100%" id="vvvortex-grad"><stop stop-color="hsl(30, 100%, 50%)" stop-opacity="1" offset="0%"></stop><stop stop-color="hsl(30, 100%, 70%)" stop-opacity="1" offset="100%"></stop></linearGradient></defs><g stroke="url(#vvvortex-grad)" fill="none" stroke-linecap="round"><circle r="392" cx="400" cy="400" stroke-width="14" stroke-dasharray="46 54" stroke-dashoffset="25" transform="rotate(261, 400, 400)" opacity="0.84"></circle><circle r="364" cx="400" cy="400" stroke-width="13" stroke-dasharray="43 17" stroke-dashoffset="25" transform="rotate(185, 400, 400)" opacity="0.68"></circle><circle r="336" cx="400" cy="400" stroke-width="13" stroke-dasharray="33 54" stroke-dashoffset="25" transform="rotate(231, 400, 400)" opacity="0.65"></circle><circle r="308" cx="400" cy="400" stroke-width="12" stroke-dasharray="23 11" stroke-dashoffset="25" transform="rotate(134, 400, 400)" opacity="0.35"></circle><circle r="280" cx="400" cy="400" stroke-width="12" stroke-dasharray="35 53" stroke-dashoffset="25" transform="rotate(277, 400, 400)" opacity="0.76"></circle><circle r="252" cx="400" cy="400" stroke-width="11" stroke-dasharray="44 15" stroke-dashoffset="25" transform="rotate(157, 400, 400)" opacity="0.84"></circle><circle r="224" cx="400" cy="400" stroke-width="11" stroke-dasharray="55 31" stroke-dashoffset="25" transform="rotate(108, 400, 400)" opacity="0.45"></circle><circle r="196" cx="400" cy="400" stroke-width="10" stroke-dasharray="53 24" stroke-dashoffset="25" transform="rotate(85, 400, 400)" opacity="0.70"></circle><circle r="168" cx="400" cy="400" stroke-width="10" stroke-dasharray="33 12" stroke-dashoffset="25" transform="rotate(186, 400, 400)" opacity="0.76"></circle><circle r="140" cx="400" cy="400" stroke-width="9" stroke-dasharray="46 38" stroke-dashoffset="25" transform="rotate(168, 400, 400)" opacity="0.70"></circle><circle r="112" cx="400" cy="400" stroke-width="9" stroke-dasharray="28 17" stroke-dashoffset="25" transform="rotate(154, 400, 400)" opacity="0.22"></circle><circle r="84" cx="400" cy="400" stroke-width="8" stroke-dasharray="20 17" stroke-dashoffset="25" transform="rotate(228, 400, 400)" opacity="0.41"></circle><circle r="56" cx="400" cy="400" stroke-width="8" stroke-dasharray="54 23" stroke-dashoffset="25" transform="rotate(8, 400, 400)" opacity="0.26"></circle><circle r="28" cx="400" cy="400" stroke-width="8" stroke-dasharray="52 36" stroke-dashoffset="25" transform="rotate(59, 400, 400)" opacity="0.73"></circle></g></svg>