<svg width="860" height="860"><path fill="none" stroke="red" d="M0 0h860v860H0z"/><path fill="none" stroke="#000" d="m430 580 18.318 199.52-2.639-200.342 39.073 196.513-23.565-198.969 59.4 191.352-44.234-195.416 79.076 184.095-64.419-189.721 97.887 174.82L505 559.904l115.624 163.631-102.456-172.182 132.094 150.648L530.37 541.472l147.117 136.015L541.472 530.37l160.529 119.892-150.648-132.094 172.182 102.456L559.904 505l181.948 83.897-174.82-97.887 189.721 64.419-184.095-79.076 195.416 44.234-191.352-59.4 198.969 23.565-196.513-39.073 200.342 2.639L580 430l199.52-18.318-200.342 2.639 196.513-39.073-198.969 23.565 191.352-59.4-195.416 44.234 184.095-79.076-189.721 64.419 174.82-97.887L559.904 355l163.631-115.624-172.182 102.456 150.648-132.094L541.472 329.63l136.015-147.117L530.37 318.528l119.892-160.529-132.094 150.648 102.456-172.182L505 300.096l83.897-181.948-97.887 174.82 64.419-189.721-79.076 184.095 44.234-195.416-59.4 191.352 23.565-198.969-39.073 196.513 2.639-200.342L430 280 411.682 80.48l2.639 200.342-39.073-196.513 23.565 198.969-59.4-191.352 44.234 195.416-79.076-184.095 64.419 189.721-97.887-174.82L355 300.096 239.376 136.465l102.456 172.182-132.094-150.648L329.63 318.528 182.513 182.513 318.528 329.63 157.999 209.738l150.648 132.094-172.182-102.456L300.096 355l-181.948-83.897 174.82 97.887-189.721-64.419 184.095 79.076-195.416-44.234 191.352 59.4-198.969-23.565 196.513 39.073-200.342-2.639L280 430 80.48 448.318l200.342-2.639-196.513 39.073 198.969-23.565-191.352 59.4 195.416-44.234-184.095 79.076 189.721-64.419-174.82 97.887L300.096 505 136.465 620.624l172.182-102.456-150.648 132.094L318.528 530.37 182.513 677.487 329.63 541.472 209.738 702.001l132.094-150.648-102.456 172.182L355 559.904l-83.897 181.948 97.887-174.82-64.419 189.721 79.076-184.095-44.234 195.416 59.4-191.352-23.565 198.969 39.073-196.513-2.639 200.342z"/></svg>