<svg xmlns="http://www.w3.org/2000/svg" version="1.1" xmlns:xlink="http://www.w3.org/1999/xlink" xmlns:svgjs="http://svgjs.dev/svgjs" viewBox="0 0 800 800" opacity="1"><defs><linearGradient x1="50%" y1="0%" x2="50%" y2="100%" id="vvvortex-grad"><stop stop-color="hsl(30, 100%, 50%)" stop-opacity="1" offset="0%"></stop><stop stop-color="hsl(30, 100%, 70%)" stop-opacity="1" offset="100%"></stop></linearGradient></defs><g stroke="url(#vvvortex-grad)" fill="none" stroke-linecap="round"><circle r="588" cx="400" cy="400" stroke-width="14" stroke-dasharray="13 32" stroke-dashoffset="25" transform="rotate(225, 400, 400)" opacity="0.16"></circle><circle r="560" cx="400" cy="400" stroke-width="13" stroke-dasharray="31 23" stroke-dashoffset="25" transform="rotate(325, 400, 400)" opacity="0.69"></circle><circle r="532" cx="400" cy="400" stroke-width="13" stroke-dasharray="44 49" stroke-dashoffset="25" transform="rotate(63, 400, 400)" opacity="0.93"></circle><circle r="504" cx="400" cy="400" stroke-width="13" stroke-dasharray="51 18" stroke-dashoffset="25" transform="rotate(313, 400, 400)" opacity="0.61"></circle><circle r="476" cx="400" cy="400" stroke-width="12" stroke-dasharray="47 32" stroke-dashoffset="25" transform="rotate(42, 400, 400)" opacity="0.99"></circle><circle r="448" cx="400" cy="400" stroke-width="12" stroke-dasharray="53 35" stroke-dashoffset="25" transform="rotate(90, 400, 400)" opacity="0.39"></circle><circle r="420" cx="400" cy="400" stroke-width="12" stroke-dasharray="49 52" stroke-dashoffset="25" transform="rotate(72, 400, 400)" opacity="0.16"></circle><circle r="392" cx="400" cy="400" stroke-width="11" stroke-dasharray="10 47" stroke-dashoffset="25" transform="rotate(102, 400, 400)" opacity="0.45"></circle><circle r="364" cx="400" cy="400" stroke-width="11" stroke-dasharray="29 55" stroke-dashoffset="25" transform="rotate(145, 400, 400)" opacity="0.30"></circle><circle r="336" cx="400" cy="400" stroke-width="11" stroke-dasharray="34 45" stroke-dashoffset="25" transform="rotate(118, 400, 400)" opacity="0.94"></circle><circle r="308" cx="400" cy="400" stroke-width="11" stroke-dasharray="20 30" stroke-dashoffset="25" transform="rotate(340, 400, 400)" opacity="0.15"></circle><circle r="280" cx="400" cy="400" stroke-width="10" stroke-dasharray="37 11" stroke-dashoffset="25" transform="rotate(152, 400, 400)" opacity="0.88"></circle><circle r="252" cx="400" cy="400" stroke-width="10" stroke-dasharray="24 37" stroke-dashoffset="25" transform="rotate(93, 400, 400)" opacity="0.63"></circle><circle r="224" cx="400" cy="400" stroke-width="10" stroke-dasharray="10 44" stroke-dashoffset="25" transform="rotate(303, 400, 400)" opacity="0.85"></circle><circle r="196" cx="400" cy="400" stroke-width="9" stroke-dasharray="30 42" stroke-dashoffset="25" transform="rotate(73, 400, 400)" opacity="0.79"></circle><circle r="168" cx="400" cy="400" stroke-width="9" stroke-dasharray="14 27" stroke-dashoffset="25" transform="rotate(249, 400, 400)" opacity="0.67"></circle><circle r="140" cx="400" cy="400" stroke-width="9" stroke-dasharray="48 25" stroke-dashoffset="25" transform="rotate(76, 400, 400)" opacity="0.24"></circle><circle r="112" cx="400" cy="400" stroke-width="8" stroke-dasharray="12 20" stroke-dashoffset="25" transform="rotate(302, 400, 400)" opacity="0.35"></circle><circle r="84" cx="400" cy="400" stroke-width="8" stroke-dasharray="26 35" stroke-dashoffset="25" transform="rotate(103, 400, 400)" opacity="0.47"></circle><circle r="56" cx="400" cy="400" stroke-width="8" stroke-dasharray="42 41" stroke-dashoffset="25" transform="rotate(23, 400, 400)" opacity="0.78"></circle><circle r="28" cx="400" cy="400" stroke-width="8" stroke-dasharray="34 36" stroke-dashoffset="25" transform="rotate(53, 400, 400)" opacity="0.54"></circle></g></svg>